<svg xmlns="http://www.w3.org/2000/svg" xmlns:xlink="http://www.w3.org/1999/xlink" width="432" zoomAndPan="magnify" viewBox="0 0 324 90.749999" height="121" preserveAspectRatio="xMidYMid meet" version="1.0"><defs><g/><clipPath id="3801db16e4"><path d="M 2 0 L 254 0 L 254 90.5 L 2 90.5 Z M 2 0 " clip-rule="nonzero"/></clipPath></defs><g fill="#000000" fill-opacity="1"><g transform="translate(159.989905, 51.59287)"><g><path d="M 2 0.09375 C 1.726562 0.09375 1.492188 -0.00390625 1.296875 -0.203125 C 1.097656 -0.410156 1 -0.660156 1 -0.953125 C 1 -1.234375 1.097656 -1.472656 1.296875 -1.671875 C 1.492188 -1.867188 1.726562 -1.96875 2 -1.96875 C 2.28125 -1.96875 2.519531 -1.867188 2.71875 -1.671875 C 2.925781 -1.472656 3.03125 -1.234375 3.03125 -0.953125 C 3.03125 -0.660156 2.925781 -0.410156 2.71875 -0.203125 C 2.519531 -0.00390625 2.28125 0.09375 2 0.09375 Z M 2 0.09375 "/></g></g></g><path fill="#83cd29" d="M 296.128906 32.035156 C 295.351562 32.035156 294.59375 32.195312 293.925781 32.574219 L 272.738281 44.8125 C 271.367188 45.605469 270.535156 47.097656 270.535156 48.683594 L 270.535156 73.121094 C 270.535156 74.707031 271.367188 76.199219 272.738281 76.988281 L 278.269531 80.179688 C 280.960938 81.503906 281.949219 81.484375 283.175781 81.484375 C 287.15625 81.484375 289.425781 79.066406 289.425781 74.867188 L 289.425781 50.757812 C 289.425781 50.417969 289.132812 50.175781 288.796875 50.175781 L 286.144531 50.175781 C 285.804688 50.175781 285.511719 50.425781 285.511719 50.757812 L 285.511719 74.878906 C 285.511719 76.742188 283.574219 78.613281 280.429688 77.039062 L 274.679688 73.664062 C 274.476562 73.554688 274.320312 73.351562 274.320312 73.125 L 274.320312 48.6875 C 274.320312 48.457031 274.472656 48.222656 274.679688 48.105469 L 295.820312 35.90625 C 296.019531 35.792969 296.253906 35.792969 296.449219 35.90625 L 317.59375 48.105469 C 317.792969 48.226562 317.953125 48.449219 317.953125 48.6875 L 317.953125 73.125 C 317.953125 73.359375 317.835938 73.597656 317.636719 73.710938 L 296.453125 85.90625 C 296.265625 86.015625 296.015625 86.015625 295.820312 85.90625 L 290.378906 82.667969 C 290.214844 82.570312 289.996094 82.578125 289.839844 82.667969 C 288.335938 83.519531 288.054688 83.617188 286.644531 84.105469 C 286.300781 84.226562 285.769531 84.414062 286.824219 85.007812 L 293.933594 89.199219 C 294.609375 89.589844 295.363281 89.78125 296.136719 89.78125 C 296.921875 89.78125 297.664062 89.59375 298.34375 89.199219 L 319.527344 77 C 320.898438 76.203125 321.734375 74.71875 321.734375 73.132812 L 321.734375 48.695312 C 321.734375 47.109375 320.898438 45.617188 319.527344 44.824219 L 298.34375 32.585938 C 297.679688 32.207031 296.917969 32.046875 296.136719 32.046875 Z M 301.796875 49.496094 C 295.765625 49.496094 292.171875 52.0625 292.171875 56.335938 C 292.171875 60.964844 295.738281 62.242188 301.527344 62.816406 C 308.457031 63.492188 308.996094 64.511719 308.996094 65.875 C 308.996094 68.242188 307.109375 69.25 302.652344 69.25 C 297.054688 69.25 295.824219 67.851562 295.410156 65.058594 C 295.363281 64.761719 295.132812 64.519531 294.824219 64.519531 L 292.074219 64.519531 C 291.902344 64.523438 291.753906 64.585938 291.632812 64.707031 C 291.511719 64.828125 291.449219 64.976562 291.445312 65.148438 C 291.445312 68.714844 293.386719 72.933594 302.648438 72.933594 C 309.351562 72.933594 313.21875 70.308594 313.21875 65.6875 C 313.21875 61.125 310.09375 59.890625 303.589844 59.027344 C 297.027344 58.152344 296.394531 57.734375 296.394531 56.191406 C 296.394531 54.921875 296.925781 53.222656 301.792969 53.222656 C 306.140625 53.222656 307.746094 54.160156 308.40625 57.09375 C 308.460938 57.367188 308.703125 57.59375 308.988281 57.59375 L 311.742188 57.59375 C 311.910156 57.59375 312.074219 57.488281 312.191406 57.367188 C 312.304688 57.238281 312.386719 57.09375 312.371094 56.917969 C 311.945312 51.867188 308.578125 49.492188 301.800781 49.492188 Z M 301.796875 49.496094 " fill-opacity="1" fill-rule="nonzero"/><g clip-path="url(#3801db16e4)"><path fill="#404137" d="M 171.570312 0 C 171.328125 0 171.105469 0.0625 170.894531 0.179688 C 170.449219 0.441406 170.222656 0.832031 170.21875 1.351562 L 170.21875 35.777344 C 170.21875 36.113281 170.0625 36.417969 169.769531 36.585938 C 169.457031 36.769531 169.140625 36.769531 168.824219 36.585938 L 163.203125 33.347656 C 162.785156 33.105469 162.335938 32.984375 161.851562 32.984375 C 161.371094 32.984375 160.921875 33.105469 160.503906 33.347656 L 138.058594 46.304688 C 137.21875 46.789062 136.707031 47.722656 136.707031 48.691406 L 136.707031 74.613281 C 136.707031 75.09375 136.828125 75.546875 137.070312 75.964844 C 137.308594 76.382812 137.640625 76.710938 138.058594 76.953125 L 160.503906 89.914062 C 160.921875 90.15625 161.371094 90.277344 161.855469 90.277344 C 162.335938 90.277344 162.785156 90.15625 163.203125 89.914062 L 185.652344 76.953125 C 186.070312 76.710938 186.398438 76.382812 186.640625 75.964844 C 186.882812 75.546875 187 75.09375 187 74.613281 L 187 9.992188 C 187 9.007812 186.464844 8.085938 185.605469 7.605469 L 172.246094 0.132812 C 172.035156 0.015625 171.804688 -0.00390625 171.570312 -0.00390625 Z M 27.171875 32.355469 C 26.746094 32.375 26.34375 32.449219 25.957031 32.671875 L 3.511719 45.632812 C 3.09375 45.871094 2.761719 46.199219 2.523438 46.621094 C 2.28125 47.039062 2.160156 47.488281 2.164062 47.972656 L 2.207031 82.757812 C 2.207031 83.242188 2.457031 83.691406 2.882812 83.925781 C 3.300781 84.175781 3.816406 84.175781 4.230469 83.925781 L 17.546875 76.277344 C 18.390625 75.777344 18.941406 74.902344 18.941406 73.9375 L 18.941406 57.691406 C 18.941406 56.722656 19.449219 55.832031 20.292969 55.351562 L 25.960938 52.066406 C 26.378906 51.824219 26.828125 51.703125 27.308594 51.707031 C 27.792969 51.703125 28.242188 51.824219 28.660156 52.066406 L 34.324219 55.347656 C 35.164062 55.832031 35.675781 56.71875 35.675781 57.6875 L 35.675781 73.933594 C 35.675781 74.902344 36.238281 75.777344 37.066406 76.273438 L 50.382812 83.921875 C 50.800781 84.171875 51.316406 84.171875 51.730469 83.921875 C 52.144531 83.6875 52.40625 83.238281 52.40625 82.753906 L 52.453125 47.96875 C 52.457031 47.484375 52.335938 47.035156 52.09375 46.617188 C 51.851562 46.195312 51.523438 45.867188 51.101562 45.628906 L 28.65625 32.671875 C 28.277344 32.449219 27.875 32.375 27.441406 32.359375 L 27.171875 32.359375 Z M 228.875 32.671875 C 228.394531 32.667969 227.945312 32.789062 227.527344 33.03125 L 205.078125 45.992188 C 204.242188 46.476562 203.730469 47.363281 203.730469 48.332031 L 203.730469 74.25 C 203.730469 75.226562 204.277344 76.109375 205.125 76.589844 L 227.390625 89.289062 C 228.210938 89.757812 229.214844 89.792969 230.042969 89.332031 L 243.539062 81.816406 C 243.96875 81.578125 244.257812 81.132812 244.257812 80.644531 C 244.257812 80.160156 244.007812 79.71875 243.582031 79.476562 L 221 66.515625 C 220.578125 66.273438 220.28125 65.785156 220.28125 65.300781 L 220.28125 57.195312 C 220.28125 56.710938 220.582031 56.265625 221 56.027344 L 228.019531 51.976562 C 228.433594 51.734375 228.949219 51.734375 229.367188 51.976562 L 236.402344 56.027344 C 236.851562 56.285156 237.078125 56.675781 237.078125 57.195312 L 237.078125 63.585938 C 237.074219 64.105469 237.300781 64.496094 237.75 64.753906 C 238.171875 64.996094 238.679688 65 239.101562 64.753906 L 252.550781 56.925781 C 253.382812 56.4375 253.898438 55.550781 253.898438 54.585938 L 253.898438 48.332031 C 253.898438 47.847656 253.78125 47.398438 253.539062 46.980469 C 253.296875 46.5625 252.96875 46.230469 252.550781 45.992188 L 230.238281 33.03125 C 229.820312 32.789062 229.371094 32.667969 228.890625 32.671875 Z M 161.761719 52.023438 C 161.886719 52.023438 162.007812 52.050781 162.121094 52.113281 L 169.8125 56.566406 C 170.019531 56.6875 170.171875 56.910156 170.171875 57.152344 L 170.171875 66.0625 C 170.171875 66.304688 170.023438 66.527344 169.8125 66.648438 L 162.121094 71.101562 C 161.910156 71.21875 161.65625 71.21875 161.445312 71.101562 L 153.753906 66.648438 C 153.542969 66.527344 153.394531 66.304688 153.394531 66.0625 L 153.394531 57.15625 C 153.394531 56.914062 153.542969 56.691406 153.753906 56.570312 L 161.445312 52.113281 C 161.550781 52.054688 161.644531 52.027344 161.761719 52.027344 Z M 161.761719 52.023438 " fill-opacity="1" fill-rule="nonzero"/></g><path fill="#83cd29" d="M 94.601562 32.535156 C 94.117188 32.535156 93.667969 32.65625 93.25 32.894531 L 70.804688 45.8125 C 69.964844 46.296875 69.453125 47.226562 69.453125 48.195312 L 69.453125 74.117188 C 69.453125 74.597656 69.574219 75.050781 69.8125 75.46875 C 70.054688 75.886719 70.386719 76.214844 70.804688 76.457031 L 93.25 89.417969 C 93.667969 89.660156 94.117188 89.78125 94.601562 89.78125 C 95.082031 89.78125 95.53125 89.660156 95.949219 89.417969 L 118.394531 76.457031 C 118.8125 76.214844 119.144531 75.886719 119.386719 75.46875 C 119.625 75.050781 119.746094 74.597656 119.746094 74.117188 L 119.746094 48.199219 C 119.746094 47.226562 119.234375 46.296875 118.394531 45.8125 L 95.949219 32.898438 C 95.53125 32.65625 95.082031 32.535156 94.597656 32.535156 Z M 228.832031 55.667969 C 228.742188 55.667969 228.644531 55.667969 228.5625 55.710938 L 224.242188 58.230469 C 224.066406 58.328125 223.976562 58.480469 223.972656 58.679688 L 223.972656 63.632812 C 223.972656 63.816406 224.082031 63.988281 224.242188 64.082031 L 228.5625 66.554688 C 228.726562 66.65625 228.890625 66.65625 229.054688 66.554688 L 233.375 64.082031 C 233.535156 63.988281 233.644531 63.816406 233.644531 63.632812 L 233.644531 58.679688 C 233.644531 58.492188 233.535156 58.324219 233.375 58.230469 L 229.054688 55.710938 C 228.976562 55.660156 228.921875 55.664062 228.832031 55.664062 Z M 228.832031 55.667969 " fill-opacity="1" fill-rule="nonzero"/></svg>